<mxfile host="app.diagrams.net" modified="2024-05-14T08:41:03.718Z" agent="Mozilla/5.0 (Macintosh; Intel Mac OS X 10_15_7) AppleWebKit/537.36 (KHTML, like Gecko) Chrome/124.0.0.0 Safari/537.36" etag="SDb_rO_jwJcam3qT10ib" version="24.3.0" type="google" pages="6">
  <diagram name="Страница — 1" id="EqWJqsJqJOjqkCKdhE3f">
    <mxGraphModel grid="1" page="1" gridSize="10" guides="1" tooltips="1" connect="1" arrows="1" fold="1" pageScale="1" pageWidth="827" pageHeight="1169" math="0" shadow="0">
      <root>
        <mxCell id="0" />
        <mxCell id="1" parent="0" />
        <mxCell id="tsPPlrbi5cFnJzBSDMUf-1" value="&lt;div&gt;&lt;br&gt;&lt;/div&gt;Уильям Шекспир" style="ellipse;whiteSpace=wrap;html=1;aspect=fixed;" vertex="1" parent="1">
          <mxGeometry x="490" y="440" width="80" height="80" as="geometry" />
        </mxCell>
        <mxCell id="tsPPlrbi5cFnJzBSDMUf-2" value="Джейн Остин" style="ellipse;whiteSpace=wrap;html=1;aspect=fixed;" vertex="1" parent="1">
          <mxGeometry x="510" y="240" width="80" height="80" as="geometry" />
        </mxCell>
        <mxCell id="tsPPlrbi5cFnJzBSDMUf-3" value="&lt;div&gt;&lt;br&gt;&lt;/div&gt;&lt;div&gt;&lt;br&gt;&lt;/div&gt;Габриэль Гарсиа Маркес" style="ellipse;whiteSpace=wrap;html=1;aspect=fixed;" vertex="1" parent="1">
          <mxGeometry x="610" y="140" width="80" height="80" as="geometry" />
        </mxCell>
        <mxCell id="tsPPlrbi5cFnJzBSDMUf-4" value="&lt;div&gt;&lt;br&gt;&lt;/div&gt;Александр Пушкин" style="ellipse;whiteSpace=wrap;html=1;aspect=fixed;" vertex="1" parent="1">
          <mxGeometry x="140" y="340" width="80" height="80" as="geometry" />
        </mxCell>
        <mxCell id="tsPPlrbi5cFnJzBSDMUf-5" value="&lt;div&gt;&lt;br&gt;&lt;/div&gt;Михаил Булгаков" style="ellipse;whiteSpace=wrap;html=1;aspect=fixed;" vertex="1" parent="1">
          <mxGeometry x="260" y="440" width="80" height="80" as="geometry" />
        </mxCell>
        <mxCell id="tsPPlrbi5cFnJzBSDMUf-6" value="&lt;div&gt;&lt;br&gt;&lt;/div&gt;Эрнест Хемингуэй" style="ellipse;whiteSpace=wrap;html=1;aspect=fixed;" vertex="1" parent="1">
          <mxGeometry x="374" y="340" width="80" height="80" as="geometry" />
        </mxCell>
        <mxCell id="tsPPlrbi5cFnJzBSDMUf-7" value="Толкин" style="ellipse;whiteSpace=wrap;html=1;aspect=fixed;" vertex="1" parent="1">
          <mxGeometry x="600" y="340" width="80" height="80" as="geometry" />
        </mxCell>
        <mxCell id="tsPPlrbi5cFnJzBSDMUf-8" value="Лев Толстой" style="ellipse;whiteSpace=wrap;html=1;aspect=fixed;" vertex="1" parent="1">
          <mxGeometry x="140" y="140" width="80" height="80" as="geometry" />
        </mxCell>
        <mxCell id="tsPPlrbi5cFnJzBSDMUf-9" value="&lt;div&gt;&lt;font style=&quot;font-size: 9px;&quot;&gt;&lt;br&gt;&lt;/font&gt;&lt;/div&gt;&lt;font style=&quot;font-size: 9px;&quot;&gt;Фёдор Достоевский&lt;/font&gt;" style="ellipse;whiteSpace=wrap;html=1;aspect=fixed;" vertex="1" parent="1">
          <mxGeometry x="260" y="240" width="80" height="80" as="geometry" />
        </mxCell>
        <mxCell id="tsPPlrbi5cFnJzBSDMUf-10" value="&lt;div&gt;&lt;br&gt;&lt;/div&gt;Джордж Оруэлл" style="ellipse;whiteSpace=wrap;html=1;aspect=fixed;" vertex="1" parent="1">
          <mxGeometry x="374" y="140" width="80" height="80" as="geometry" />
        </mxCell>
        <mxCell id="tsPPlrbi5cFnJzBSDMUf-11" value="4" style="rounded=0;whiteSpace=wrap;html=1;" vertex="1" parent="1">
          <mxGeometry x="535" y="240" width="30" height="30" as="geometry" />
        </mxCell>
        <mxCell id="tsPPlrbi5cFnJzBSDMUf-12" value="9" style="rounded=0;whiteSpace=wrap;html=1;" vertex="1" parent="1">
          <mxGeometry x="515" y="440" width="30" height="30" as="geometry" />
        </mxCell>
        <mxCell id="tsPPlrbi5cFnJzBSDMUf-13" value="10" style="rounded=0;whiteSpace=wrap;html=1;" vertex="1" parent="1">
          <mxGeometry x="625" y="340" width="30" height="30" as="geometry" />
        </mxCell>
        <mxCell id="tsPPlrbi5cFnJzBSDMUf-14" value="8" style="rounded=0;whiteSpace=wrap;html=1;" vertex="1" parent="1">
          <mxGeometry x="399" y="340" width="30" height="30" as="geometry" />
        </mxCell>
        <mxCell id="tsPPlrbi5cFnJzBSDMUf-15" value="7" style="rounded=0;whiteSpace=wrap;html=1;" vertex="1" parent="1">
          <mxGeometry x="285" y="440" width="30" height="30" as="geometry" />
        </mxCell>
        <mxCell id="tsPPlrbi5cFnJzBSDMUf-16" value="1" style="rounded=0;whiteSpace=wrap;html=1;" vertex="1" parent="1">
          <mxGeometry x="165" y="140" width="30" height="30" as="geometry" />
        </mxCell>
        <mxCell id="tsPPlrbi5cFnJzBSDMUf-17" value="2" style="rounded=0;whiteSpace=wrap;html=1;" vertex="1" parent="1">
          <mxGeometry x="285" y="240" width="30" height="30" as="geometry" />
        </mxCell>
        <mxCell id="tsPPlrbi5cFnJzBSDMUf-18" value="3" style="rounded=0;whiteSpace=wrap;html=1;" vertex="1" parent="1">
          <mxGeometry x="399" y="140" width="30" height="30" as="geometry" />
        </mxCell>
        <mxCell id="tsPPlrbi5cFnJzBSDMUf-19" value="5" style="rounded=0;whiteSpace=wrap;html=1;" vertex="1" parent="1">
          <mxGeometry x="635" y="140" width="30" height="30" as="geometry" />
        </mxCell>
        <mxCell id="tsPPlrbi5cFnJzBSDMUf-20" value="6" style="rounded=0;whiteSpace=wrap;html=1;" vertex="1" parent="1">
          <mxGeometry x="165" y="340" width="30" height="30" as="geometry" />
        </mxCell>
      </root>
    </mxGraphModel>
  </diagram>
  <diagram id="gb01FILcL4QIe715Tl9t" name="Страница — 2">
    <mxGraphModel grid="1" page="1" gridSize="10" guides="1" tooltips="1" connect="1" arrows="1" fold="1" pageScale="1" pageWidth="827" pageHeight="1169" math="0" shadow="0">
      <root>
        <mxCell id="0" />
        <mxCell id="1" parent="0" />
        <mxCell id="0w9Z9b-0TLVVhJwfxunq-1" value="Гамлет&lt;div&gt;&lt;/div&gt;" style="ellipse;whiteSpace=wrap;html=1;aspect=fixed;fillColor=#fff2cc;strokeColor=#d6b656;" vertex="1" parent="1">
          <mxGeometry x="490" y="440" width="80" height="80" as="geometry" />
        </mxCell>
        <mxCell id="0w9Z9b-0TLVVhJwfxunq-2" value="&lt;span style=&quot;font-size: 9px;&quot;&gt;Гордость и предубеждение&lt;/span&gt;" style="ellipse;whiteSpace=wrap;html=1;aspect=fixed;fillColor=#fff2cc;strokeColor=#d6b656;" vertex="1" parent="1">
          <mxGeometry x="510" y="240" width="80" height="80" as="geometry" />
        </mxCell>
        <mxCell id="0w9Z9b-0TLVVhJwfxunq-3" value="&lt;div&gt;&lt;font style=&quot;font-size: 9px;&quot;&gt;&lt;br&gt;&lt;/font&gt;&lt;/div&gt;&lt;font style=&quot;font-size: 9px;&quot;&gt;Сто лет одиночества&lt;/font&gt;&lt;div&gt;&lt;/div&gt;" style="ellipse;whiteSpace=wrap;html=1;aspect=fixed;fillColor=#fff2cc;strokeColor=#d6b656;" vertex="1" parent="1">
          <mxGeometry x="610" y="140" width="80" height="80" as="geometry" />
        </mxCell>
        <mxCell id="0w9Z9b-0TLVVhJwfxunq-4" value="&lt;div&gt;&lt;br&gt;&lt;/div&gt;Евгений Онегин&lt;div&gt;&lt;/div&gt;" style="ellipse;whiteSpace=wrap;html=1;aspect=fixed;fillColor=#fff2cc;strokeColor=#d6b656;" vertex="1" parent="1">
          <mxGeometry x="140" y="340" width="80" height="80" as="geometry" />
        </mxCell>
        <mxCell id="0w9Z9b-0TLVVhJwfxunq-5" value="&lt;div&gt;&lt;br&gt;&lt;/div&gt;Мастер и Маргарита&lt;div&gt;&lt;/div&gt;" style="ellipse;whiteSpace=wrap;html=1;aspect=fixed;fillColor=#fff2cc;strokeColor=#d6b656;" vertex="1" parent="1">
          <mxGeometry x="260" y="440" width="80" height="80" as="geometry" />
        </mxCell>
        <mxCell id="0w9Z9b-0TLVVhJwfxunq-6" value="&lt;div&gt;&lt;br&gt;&lt;/div&gt;Старик и море&lt;div&gt;&lt;/div&gt;" style="ellipse;whiteSpace=wrap;html=1;aspect=fixed;fillColor=#fff2cc;strokeColor=#d6b656;" vertex="1" parent="1">
          <mxGeometry x="374" y="340" width="80" height="80" as="geometry" />
        </mxCell>
        <mxCell id="0w9Z9b-0TLVVhJwfxunq-7" value="&lt;div&gt;&lt;br&gt;&lt;/div&gt;Властелин колец" style="ellipse;whiteSpace=wrap;html=1;aspect=fixed;fillColor=#fff2cc;strokeColor=#d6b656;" vertex="1" parent="1">
          <mxGeometry x="600" y="340" width="80" height="80" as="geometry" />
        </mxCell>
        <mxCell id="0w9Z9b-0TLVVhJwfxunq-8" value="Война и мир" style="ellipse;whiteSpace=wrap;html=1;aspect=fixed;fillColor=#fff2cc;strokeColor=#d6b656;" vertex="1" parent="1">
          <mxGeometry x="140" y="140" width="80" height="80" as="geometry" />
        </mxCell>
        <mxCell id="0w9Z9b-0TLVVhJwfxunq-9" value="&lt;div&gt;&lt;font size=&quot;1&quot;&gt;&lt;br&gt;&lt;/font&gt;&lt;/div&gt;&lt;font size=&quot;1&quot;&gt;Преступление и наказание&lt;/font&gt;" style="ellipse;whiteSpace=wrap;html=1;aspect=fixed;fillColor=#fff2cc;strokeColor=#d6b656;" vertex="1" parent="1">
          <mxGeometry x="260" y="240" width="80" height="80" as="geometry" />
        </mxCell>
        <mxCell id="0w9Z9b-0TLVVhJwfxunq-10" value="1984&lt;div&gt;&lt;/div&gt;" style="ellipse;whiteSpace=wrap;html=1;aspect=fixed;fillColor=#fff2cc;strokeColor=#d6b656;" vertex="1" parent="1">
          <mxGeometry x="374" y="140" width="80" height="80" as="geometry" />
        </mxCell>
        <mxCell id="0w9Z9b-0TLVVhJwfxunq-11" value="4" style="rounded=0;whiteSpace=wrap;html=1;" vertex="1" parent="1">
          <mxGeometry x="535" y="240" width="30" height="30" as="geometry" />
        </mxCell>
        <mxCell id="0w9Z9b-0TLVVhJwfxunq-12" value="9" style="rounded=0;whiteSpace=wrap;html=1;" vertex="1" parent="1">
          <mxGeometry x="515" y="440" width="30" height="30" as="geometry" />
        </mxCell>
        <mxCell id="0w9Z9b-0TLVVhJwfxunq-13" value="10" style="rounded=0;whiteSpace=wrap;html=1;" vertex="1" parent="1">
          <mxGeometry x="625" y="340" width="30" height="30" as="geometry" />
        </mxCell>
        <mxCell id="0w9Z9b-0TLVVhJwfxunq-14" value="8" style="rounded=0;whiteSpace=wrap;html=1;" vertex="1" parent="1">
          <mxGeometry x="399" y="340" width="30" height="30" as="geometry" />
        </mxCell>
        <mxCell id="0w9Z9b-0TLVVhJwfxunq-15" value="7" style="rounded=0;whiteSpace=wrap;html=1;" vertex="1" parent="1">
          <mxGeometry x="285" y="440" width="30" height="30" as="geometry" />
        </mxCell>
        <mxCell id="0w9Z9b-0TLVVhJwfxunq-16" value="1" style="rounded=0;whiteSpace=wrap;html=1;" vertex="1" parent="1">
          <mxGeometry x="165" y="140" width="30" height="30" as="geometry" />
        </mxCell>
        <mxCell id="0w9Z9b-0TLVVhJwfxunq-17" value="2" style="rounded=0;whiteSpace=wrap;html=1;" vertex="1" parent="1">
          <mxGeometry x="285" y="240" width="30" height="30" as="geometry" />
        </mxCell>
        <mxCell id="0w9Z9b-0TLVVhJwfxunq-18" value="3" style="rounded=0;whiteSpace=wrap;html=1;" vertex="1" parent="1">
          <mxGeometry x="399" y="140" width="30" height="30" as="geometry" />
        </mxCell>
        <mxCell id="0w9Z9b-0TLVVhJwfxunq-19" value="5" style="rounded=0;whiteSpace=wrap;html=1;" vertex="1" parent="1">
          <mxGeometry x="635" y="140" width="30" height="30" as="geometry" />
        </mxCell>
        <mxCell id="0w9Z9b-0TLVVhJwfxunq-20" value="6" style="rounded=0;whiteSpace=wrap;html=1;" vertex="1" parent="1">
          <mxGeometry x="165" y="340" width="30" height="30" as="geometry" />
        </mxCell>
      </root>
    </mxGraphModel>
  </diagram>
  <diagram id="Pwo7cmKvXTX5NMwyu_MG" name="Страница — 3">
    <mxGraphModel grid="1" page="1" gridSize="10" guides="1" tooltips="1" connect="1" arrows="1" fold="1" pageScale="1" pageWidth="827" pageHeight="1169" math="0" shadow="0">
      <root>
        <mxCell id="0" />
        <mxCell id="1" parent="0" />
        <mxCell id="kVuKQfUKqV1mmxlc6dTq-1" value="Фэнтези&lt;div&gt;&lt;/div&gt;" style="ellipse;whiteSpace=wrap;html=1;aspect=fixed;fillColor=#d5e8d4;strokeColor=#82b366;" vertex="1" parent="1">
          <mxGeometry x="490" y="440" width="80" height="80" as="geometry" />
        </mxCell>
        <mxCell id="kVuKQfUKqV1mmxlc6dTq-2" value="&lt;font size=&quot;1&quot;&gt;Классика&lt;/font&gt;" style="ellipse;whiteSpace=wrap;html=1;aspect=fixed;fillColor=#d5e8d4;strokeColor=#82b366;" vertex="1" parent="1">
          <mxGeometry x="510" y="240" width="80" height="80" as="geometry" />
        </mxCell>
        <mxCell id="kVuKQfUKqV1mmxlc6dTq-3" value="&lt;div&gt;&lt;font size=&quot;1&quot;&gt;Поэма&lt;/font&gt;&lt;br&gt;&lt;/div&gt;&lt;div&gt;&lt;/div&gt;" style="ellipse;whiteSpace=wrap;html=1;aspect=fixed;fillColor=#d5e8d4;strokeColor=#82b366;" vertex="1" parent="1">
          <mxGeometry x="610" y="140" width="80" height="80" as="geometry" />
        </mxCell>
        <mxCell id="kVuKQfUKqV1mmxlc6dTq-4" value="Мистика&lt;div&gt;&lt;/div&gt;&lt;div&gt;&lt;/div&gt;" style="ellipse;whiteSpace=wrap;html=1;aspect=fixed;fillColor=#d5e8d4;strokeColor=#82b366;" vertex="1" parent="1">
          <mxGeometry x="140" y="340" width="80" height="80" as="geometry" />
        </mxCell>
        <mxCell id="kVuKQfUKqV1mmxlc6dTq-5" value="&lt;font style=&quot;font-size: 10px;&quot;&gt;Приключения&lt;/font&gt;&lt;div&gt;&lt;/div&gt;&lt;div&gt;&lt;/div&gt;" style="ellipse;whiteSpace=wrap;html=1;aspect=fixed;fillColor=#d5e8d4;strokeColor=#82b366;" vertex="1" parent="1">
          <mxGeometry x="260" y="440" width="80" height="80" as="geometry" />
        </mxCell>
        <mxCell id="kVuKQfUKqV1mmxlc6dTq-6" value="Трагедия&lt;br&gt;&lt;div&gt;&lt;/div&gt;&lt;div&gt;&lt;/div&gt;" style="ellipse;whiteSpace=wrap;html=1;aspect=fixed;fillColor=#d5e8d4;strokeColor=#82b366;" vertex="1" parent="1">
          <mxGeometry x="374" y="340" width="80" height="80" as="geometry" />
        </mxCell>
        <mxCell id="kVuKQfUKqV1mmxlc6dTq-7" value="Драма&lt;div&gt;&lt;/div&gt;" style="ellipse;whiteSpace=wrap;html=1;aspect=fixed;fillColor=#d5e8d4;strokeColor=#82b366;" vertex="1" parent="1">
          <mxGeometry x="600" y="340" width="80" height="80" as="geometry" />
        </mxCell>
        <mxCell id="kVuKQfUKqV1mmxlc6dTq-8" value="Роман" style="ellipse;whiteSpace=wrap;html=1;aspect=fixed;fillColor=#d5e8d4;strokeColor=#82b366;" vertex="1" parent="1">
          <mxGeometry x="140" y="140" width="80" height="80" as="geometry" />
        </mxCell>
        <mxCell id="kVuKQfUKqV1mmxlc6dTq-9" value="&lt;div&gt;Фантастика&lt;/div&gt;" style="ellipse;whiteSpace=wrap;html=1;aspect=fixed;fillColor=#d5e8d4;strokeColor=#82b366;" vertex="1" parent="1">
          <mxGeometry x="260" y="240" width="80" height="80" as="geometry" />
        </mxCell>
        <mxCell id="kVuKQfUKqV1mmxlc6dTq-10" value="Детектив&lt;div&gt;&lt;/div&gt;" style="ellipse;whiteSpace=wrap;html=1;aspect=fixed;fillColor=#d5e8d4;strokeColor=#82b366;" vertex="1" parent="1">
          <mxGeometry x="374" y="140" width="80" height="80" as="geometry" />
        </mxCell>
        <mxCell id="kVuKQfUKqV1mmxlc6dTq-11" value="4" style="rounded=0;whiteSpace=wrap;html=1;fillColor=#d5e8d4;strokeColor=#82b366;" vertex="1" parent="1">
          <mxGeometry x="535" y="240" width="30" height="30" as="geometry" />
        </mxCell>
        <mxCell id="kVuKQfUKqV1mmxlc6dTq-12" value="9" style="rounded=0;whiteSpace=wrap;html=1;fillColor=#d5e8d4;strokeColor=#82b366;" vertex="1" parent="1">
          <mxGeometry x="515" y="440" width="30" height="30" as="geometry" />
        </mxCell>
        <mxCell id="kVuKQfUKqV1mmxlc6dTq-13" value="10" style="rounded=0;whiteSpace=wrap;html=1;fillColor=#d5e8d4;strokeColor=#82b366;" vertex="1" parent="1">
          <mxGeometry x="625" y="340" width="30" height="30" as="geometry" />
        </mxCell>
        <mxCell id="kVuKQfUKqV1mmxlc6dTq-14" value="8" style="rounded=0;whiteSpace=wrap;html=1;fillColor=#d5e8d4;strokeColor=#82b366;" vertex="1" parent="1">
          <mxGeometry x="399" y="340" width="30" height="30" as="geometry" />
        </mxCell>
        <mxCell id="kVuKQfUKqV1mmxlc6dTq-15" value="7" style="rounded=0;whiteSpace=wrap;html=1;fillColor=#d5e8d4;strokeColor=#82b366;" vertex="1" parent="1">
          <mxGeometry x="285" y="440" width="30" height="30" as="geometry" />
        </mxCell>
        <mxCell id="kVuKQfUKqV1mmxlc6dTq-16" value="1" style="rounded=0;whiteSpace=wrap;html=1;fillColor=#d5e8d4;strokeColor=#82b366;" vertex="1" parent="1">
          <mxGeometry x="165" y="140" width="30" height="30" as="geometry" />
        </mxCell>
        <mxCell id="kVuKQfUKqV1mmxlc6dTq-17" value="2" style="rounded=0;whiteSpace=wrap;html=1;fillColor=#d5e8d4;strokeColor=#82b366;" vertex="1" parent="1">
          <mxGeometry x="285" y="240" width="30" height="30" as="geometry" />
        </mxCell>
        <mxCell id="kVuKQfUKqV1mmxlc6dTq-18" value="3" style="rounded=0;whiteSpace=wrap;html=1;fillColor=#d5e8d4;strokeColor=#82b366;" vertex="1" parent="1">
          <mxGeometry x="399" y="140" width="30" height="30" as="geometry" />
        </mxCell>
        <mxCell id="kVuKQfUKqV1mmxlc6dTq-19" value="5" style="rounded=0;whiteSpace=wrap;html=1;fillColor=#d5e8d4;strokeColor=#82b366;" vertex="1" parent="1">
          <mxGeometry x="635" y="140" width="30" height="30" as="geometry" />
        </mxCell>
        <mxCell id="kVuKQfUKqV1mmxlc6dTq-20" value="6" style="rounded=0;whiteSpace=wrap;html=1;fillColor=#d5e8d4;strokeColor=#82b366;" vertex="1" parent="1">
          <mxGeometry x="165" y="340" width="30" height="30" as="geometry" />
        </mxCell>
      </root>
    </mxGraphModel>
  </diagram>
  <diagram id="Q0lJ1mJxNNt3FozR_56L" name="Страница — 4">
    <mxGraphModel grid="1" page="1" gridSize="10" guides="1" tooltips="1" connect="1" arrows="1" fold="1" pageScale="1" pageWidth="827" pageHeight="1169" math="0" shadow="0">
      <root>
        <mxCell id="0" />
        <mxCell id="1" parent="0" />
        <mxCell id="R-XqrJNLImSLN6h6NLTU-30" style="edgeStyle=orthogonalEdgeStyle;rounded=0;orthogonalLoop=1;jettySize=auto;html=1;exitX=0.5;exitY=1;exitDx=0;exitDy=0;" edge="1" parent="1" source="y_QBRI53AlYQunm4WOpN-1" target="R-XqrJNLImSLN6h6NLTU-12">
          <mxGeometry relative="1" as="geometry" />
        </mxCell>
        <mxCell id="y_QBRI53AlYQunm4WOpN-1" value="&lt;div&gt;&lt;br&gt;&lt;/div&gt;Уильям Шекспир" style="ellipse;whiteSpace=wrap;html=1;aspect=fixed;" vertex="1" parent="1">
          <mxGeometry x="490" y="440" width="80" height="80" as="geometry" />
        </mxCell>
        <mxCell id="y_QBRI53AlYQunm4WOpN-2" value="Джейн Остин" style="ellipse;whiteSpace=wrap;html=1;aspect=fixed;" vertex="1" parent="1">
          <mxGeometry x="489" y="230" width="80" height="80" as="geometry" />
        </mxCell>
        <mxCell id="R-XqrJNLImSLN6h6NLTU-26" style="edgeStyle=orthogonalEdgeStyle;rounded=0;orthogonalLoop=1;jettySize=auto;html=1;exitX=0.5;exitY=1;exitDx=0;exitDy=0;entryX=0.5;entryY=0;entryDx=0;entryDy=0;" edge="1" parent="1" source="y_QBRI53AlYQunm4WOpN-3" target="R-XqrJNLImSLN6h6NLTU-19">
          <mxGeometry relative="1" as="geometry" />
        </mxCell>
        <mxCell id="y_QBRI53AlYQunm4WOpN-3" value="&lt;div&gt;&lt;br&gt;&lt;/div&gt;&lt;div&gt;&lt;br&gt;&lt;/div&gt;Габриэль Гарсиа Маркес" style="ellipse;whiteSpace=wrap;html=1;aspect=fixed;" vertex="1" parent="1">
          <mxGeometry x="610" y="230" width="80" height="80" as="geometry" />
        </mxCell>
        <mxCell id="R-XqrJNLImSLN6h6NLTU-27" style="edgeStyle=orthogonalEdgeStyle;rounded=0;orthogonalLoop=1;jettySize=auto;html=1;exitX=0.5;exitY=1;exitDx=0;exitDy=0;entryX=0.5;entryY=0;entryDx=0;entryDy=0;" edge="1" parent="1" source="y_QBRI53AlYQunm4WOpN-4" target="R-XqrJNLImSLN6h6NLTU-20">
          <mxGeometry relative="1" as="geometry" />
        </mxCell>
        <mxCell id="y_QBRI53AlYQunm4WOpN-4" value="&lt;div&gt;&lt;br&gt;&lt;/div&gt;Александр Пушкин" style="ellipse;whiteSpace=wrap;html=1;aspect=fixed;" vertex="1" parent="1">
          <mxGeometry x="140" y="430" width="80" height="80" as="geometry" />
        </mxCell>
        <mxCell id="R-XqrJNLImSLN6h6NLTU-28" style="edgeStyle=orthogonalEdgeStyle;rounded=0;orthogonalLoop=1;jettySize=auto;html=1;exitX=0.5;exitY=1;exitDx=0;exitDy=0;entryX=0.5;entryY=0;entryDx=0;entryDy=0;" edge="1" parent="1" source="y_QBRI53AlYQunm4WOpN-5" target="R-XqrJNLImSLN6h6NLTU-15">
          <mxGeometry relative="1" as="geometry" />
        </mxCell>
        <mxCell id="y_QBRI53AlYQunm4WOpN-5" value="&lt;div&gt;&lt;br&gt;&lt;/div&gt;Михаил Булгаков" style="ellipse;whiteSpace=wrap;html=1;aspect=fixed;" vertex="1" parent="1">
          <mxGeometry x="260" y="440" width="80" height="80" as="geometry" />
        </mxCell>
        <mxCell id="R-XqrJNLImSLN6h6NLTU-29" style="edgeStyle=orthogonalEdgeStyle;rounded=0;orthogonalLoop=1;jettySize=auto;html=1;exitX=0.5;exitY=1;exitDx=0;exitDy=0;entryX=0.5;entryY=0;entryDx=0;entryDy=0;" edge="1" parent="1" source="y_QBRI53AlYQunm4WOpN-6" target="R-XqrJNLImSLN6h6NLTU-14">
          <mxGeometry relative="1" as="geometry" />
        </mxCell>
        <mxCell id="y_QBRI53AlYQunm4WOpN-6" value="&lt;div&gt;&lt;br&gt;&lt;/div&gt;Эрнест Хемингуэй" style="ellipse;whiteSpace=wrap;html=1;aspect=fixed;" vertex="1" parent="1">
          <mxGeometry x="374" y="430" width="80" height="80" as="geometry" />
        </mxCell>
        <mxCell id="R-XqrJNLImSLN6h6NLTU-31" style="edgeStyle=orthogonalEdgeStyle;rounded=0;orthogonalLoop=1;jettySize=auto;html=1;exitX=0.5;exitY=1;exitDx=0;exitDy=0;entryX=0.5;entryY=0;entryDx=0;entryDy=0;" edge="1" parent="1" source="y_QBRI53AlYQunm4WOpN-7" target="R-XqrJNLImSLN6h6NLTU-13">
          <mxGeometry relative="1" as="geometry" />
        </mxCell>
        <mxCell id="y_QBRI53AlYQunm4WOpN-7" value="Толкин" style="ellipse;whiteSpace=wrap;html=1;aspect=fixed;" vertex="1" parent="1">
          <mxGeometry x="600" y="430" width="80" height="80" as="geometry" />
        </mxCell>
        <mxCell id="R-XqrJNLImSLN6h6NLTU-22" style="edgeStyle=orthogonalEdgeStyle;rounded=0;orthogonalLoop=1;jettySize=auto;html=1;exitX=0.5;exitY=1;exitDx=0;exitDy=0;entryX=0.5;entryY=0;entryDx=0;entryDy=0;" edge="1" parent="1" source="y_QBRI53AlYQunm4WOpN-8" target="R-XqrJNLImSLN6h6NLTU-16">
          <mxGeometry relative="1" as="geometry" />
        </mxCell>
        <mxCell id="y_QBRI53AlYQunm4WOpN-8" value="Лев Толстой" style="ellipse;whiteSpace=wrap;html=1;aspect=fixed;" vertex="1" parent="1">
          <mxGeometry x="140" y="230" width="80" height="80" as="geometry" />
        </mxCell>
        <mxCell id="R-XqrJNLImSLN6h6NLTU-23" style="edgeStyle=orthogonalEdgeStyle;rounded=0;orthogonalLoop=1;jettySize=auto;html=1;exitX=0.5;exitY=1;exitDx=0;exitDy=0;entryX=0.5;entryY=0;entryDx=0;entryDy=0;" edge="1" parent="1" source="y_QBRI53AlYQunm4WOpN-9" target="R-XqrJNLImSLN6h6NLTU-17">
          <mxGeometry relative="1" as="geometry" />
        </mxCell>
        <mxCell id="y_QBRI53AlYQunm4WOpN-9" value="&lt;div&gt;&lt;font style=&quot;font-size: 9px;&quot;&gt;&lt;br&gt;&lt;/font&gt;&lt;/div&gt;&lt;font style=&quot;font-size: 9px;&quot;&gt;Фёдор Достоевский&lt;/font&gt;" style="ellipse;whiteSpace=wrap;html=1;aspect=fixed;" vertex="1" parent="1">
          <mxGeometry x="260" y="240" width="80" height="80" as="geometry" />
        </mxCell>
        <mxCell id="R-XqrJNLImSLN6h6NLTU-24" style="edgeStyle=orthogonalEdgeStyle;rounded=0;orthogonalLoop=1;jettySize=auto;html=1;exitX=0.5;exitY=1;exitDx=0;exitDy=0;entryX=0.5;entryY=0;entryDx=0;entryDy=0;" edge="1" parent="1" source="y_QBRI53AlYQunm4WOpN-10" target="R-XqrJNLImSLN6h6NLTU-18">
          <mxGeometry relative="1" as="geometry" />
        </mxCell>
        <mxCell id="y_QBRI53AlYQunm4WOpN-10" value="&lt;div&gt;&lt;br&gt;&lt;/div&gt;Джордж Оруэлл" style="ellipse;whiteSpace=wrap;html=1;aspect=fixed;" vertex="1" parent="1">
          <mxGeometry x="374" y="230" width="80" height="80" as="geometry" />
        </mxCell>
        <mxCell id="y_QBRI53AlYQunm4WOpN-11" value="4" style="rounded=0;whiteSpace=wrap;html=1;" vertex="1" parent="1">
          <mxGeometry x="514" y="230" width="30" height="30" as="geometry" />
        </mxCell>
        <mxCell id="y_QBRI53AlYQunm4WOpN-12" value="9" style="rounded=0;whiteSpace=wrap;html=1;" vertex="1" parent="1">
          <mxGeometry x="515" y="440" width="30" height="30" as="geometry" />
        </mxCell>
        <mxCell id="y_QBRI53AlYQunm4WOpN-13" value="10" style="rounded=0;whiteSpace=wrap;html=1;" vertex="1" parent="1">
          <mxGeometry x="625" y="430" width="30" height="30" as="geometry" />
        </mxCell>
        <mxCell id="y_QBRI53AlYQunm4WOpN-14" value="8" style="rounded=0;whiteSpace=wrap;html=1;" vertex="1" parent="1">
          <mxGeometry x="399" y="430" width="30" height="30" as="geometry" />
        </mxCell>
        <mxCell id="y_QBRI53AlYQunm4WOpN-15" value="7" style="rounded=0;whiteSpace=wrap;html=1;" vertex="1" parent="1">
          <mxGeometry x="285" y="440" width="30" height="30" as="geometry" />
        </mxCell>
        <mxCell id="y_QBRI53AlYQunm4WOpN-16" value="1" style="rounded=0;whiteSpace=wrap;html=1;" vertex="1" parent="1">
          <mxGeometry x="165" y="230" width="30" height="30" as="geometry" />
        </mxCell>
        <mxCell id="y_QBRI53AlYQunm4WOpN-17" value="2" style="rounded=0;whiteSpace=wrap;html=1;" vertex="1" parent="1">
          <mxGeometry x="285" y="240" width="30" height="30" as="geometry" />
        </mxCell>
        <mxCell id="y_QBRI53AlYQunm4WOpN-18" value="3" style="rounded=0;whiteSpace=wrap;html=1;" vertex="1" parent="1">
          <mxGeometry x="399" y="230" width="30" height="30" as="geometry" />
        </mxCell>
        <mxCell id="y_QBRI53AlYQunm4WOpN-19" value="5" style="rounded=0;whiteSpace=wrap;html=1;" vertex="1" parent="1">
          <mxGeometry x="635" y="230" width="30" height="30" as="geometry" />
        </mxCell>
        <mxCell id="y_QBRI53AlYQunm4WOpN-20" value="6" style="rounded=0;whiteSpace=wrap;html=1;" vertex="1" parent="1">
          <mxGeometry x="165" y="430" width="30" height="30" as="geometry" />
        </mxCell>
        <mxCell id="R-XqrJNLImSLN6h6NLTU-1" value="Гамлет&lt;div&gt;&lt;/div&gt;" style="ellipse;whiteSpace=wrap;html=1;aspect=fixed;fillColor=#fff2cc;strokeColor=#d6b656;" vertex="1" parent="1">
          <mxGeometry x="489" y="540" width="80" height="80" as="geometry" />
        </mxCell>
        <mxCell id="R-XqrJNLImSLN6h6NLTU-2" value="&lt;span style=&quot;font-size: 9px;&quot;&gt;Гордость и предубеждение&lt;/span&gt;" style="ellipse;whiteSpace=wrap;html=1;aspect=fixed;fillColor=#fff2cc;strokeColor=#d6b656;" vertex="1" parent="1">
          <mxGeometry x="488" y="330" width="80" height="80" as="geometry" />
        </mxCell>
        <mxCell id="R-XqrJNLImSLN6h6NLTU-3" value="&lt;div&gt;&lt;font style=&quot;font-size: 9px;&quot;&gt;&lt;br&gt;&lt;/font&gt;&lt;/div&gt;&lt;font style=&quot;font-size: 9px;&quot;&gt;Сто лет одиночества&lt;/font&gt;&lt;div&gt;&lt;/div&gt;" style="ellipse;whiteSpace=wrap;html=1;aspect=fixed;fillColor=#fff2cc;strokeColor=#d6b656;" vertex="1" parent="1">
          <mxGeometry x="609" y="330" width="80" height="80" as="geometry" />
        </mxCell>
        <mxCell id="R-XqrJNLImSLN6h6NLTU-4" value="&lt;div&gt;&lt;br&gt;&lt;/div&gt;Евгений Онегин&lt;div&gt;&lt;/div&gt;" style="ellipse;whiteSpace=wrap;html=1;aspect=fixed;fillColor=#fff2cc;strokeColor=#d6b656;" vertex="1" parent="1">
          <mxGeometry x="139" y="530" width="80" height="80" as="geometry" />
        </mxCell>
        <mxCell id="R-XqrJNLImSLN6h6NLTU-5" value="&lt;div&gt;&lt;br&gt;&lt;/div&gt;Мастер и Маргарита&lt;div&gt;&lt;/div&gt;" style="ellipse;whiteSpace=wrap;html=1;aspect=fixed;fillColor=#fff2cc;strokeColor=#d6b656;" vertex="1" parent="1">
          <mxGeometry x="259" y="540" width="80" height="80" as="geometry" />
        </mxCell>
        <mxCell id="R-XqrJNLImSLN6h6NLTU-6" value="&lt;div&gt;&lt;br&gt;&lt;/div&gt;Старик и море&lt;div&gt;&lt;/div&gt;" style="ellipse;whiteSpace=wrap;html=1;aspect=fixed;fillColor=#fff2cc;strokeColor=#d6b656;" vertex="1" parent="1">
          <mxGeometry x="373" y="530" width="80" height="80" as="geometry" />
        </mxCell>
        <mxCell id="R-XqrJNLImSLN6h6NLTU-7" value="&lt;div&gt;&lt;br&gt;&lt;/div&gt;Властелин колец" style="ellipse;whiteSpace=wrap;html=1;aspect=fixed;fillColor=#fff2cc;strokeColor=#d6b656;" vertex="1" parent="1">
          <mxGeometry x="599" y="530" width="80" height="80" as="geometry" />
        </mxCell>
        <mxCell id="R-XqrJNLImSLN6h6NLTU-8" value="Война и мир" style="ellipse;whiteSpace=wrap;html=1;aspect=fixed;fillColor=#fff2cc;strokeColor=#d6b656;" vertex="1" parent="1">
          <mxGeometry x="139" y="330" width="80" height="80" as="geometry" />
        </mxCell>
        <mxCell id="R-XqrJNLImSLN6h6NLTU-9" value="&lt;div&gt;&lt;font size=&quot;1&quot;&gt;&lt;br&gt;&lt;/font&gt;&lt;/div&gt;&lt;font size=&quot;1&quot;&gt;Преступление и наказание&lt;/font&gt;" style="ellipse;whiteSpace=wrap;html=1;aspect=fixed;fillColor=#fff2cc;strokeColor=#d6b656;" vertex="1" parent="1">
          <mxGeometry x="259" y="340" width="80" height="80" as="geometry" />
        </mxCell>
        <mxCell id="R-XqrJNLImSLN6h6NLTU-10" value="1984&lt;div&gt;&lt;/div&gt;" style="ellipse;whiteSpace=wrap;html=1;aspect=fixed;fillColor=#fff2cc;strokeColor=#d6b656;" vertex="1" parent="1">
          <mxGeometry x="373" y="330" width="80" height="80" as="geometry" />
        </mxCell>
        <mxCell id="R-XqrJNLImSLN6h6NLTU-11" value="4" style="rounded=0;whiteSpace=wrap;html=1;" vertex="1" parent="1">
          <mxGeometry x="513" y="330" width="30" height="30" as="geometry" />
        </mxCell>
        <mxCell id="R-XqrJNLImSLN6h6NLTU-12" value="9" style="rounded=0;whiteSpace=wrap;html=1;" vertex="1" parent="1">
          <mxGeometry x="514" y="540" width="30" height="30" as="geometry" />
        </mxCell>
        <mxCell id="R-XqrJNLImSLN6h6NLTU-13" value="10" style="rounded=0;whiteSpace=wrap;html=1;" vertex="1" parent="1">
          <mxGeometry x="624" y="530" width="30" height="30" as="geometry" />
        </mxCell>
        <mxCell id="R-XqrJNLImSLN6h6NLTU-14" value="8" style="rounded=0;whiteSpace=wrap;html=1;" vertex="1" parent="1">
          <mxGeometry x="398" y="530" width="30" height="30" as="geometry" />
        </mxCell>
        <mxCell id="R-XqrJNLImSLN6h6NLTU-15" value="7" style="rounded=0;whiteSpace=wrap;html=1;" vertex="1" parent="1">
          <mxGeometry x="284" y="540" width="30" height="30" as="geometry" />
        </mxCell>
        <mxCell id="R-XqrJNLImSLN6h6NLTU-16" value="1" style="rounded=0;whiteSpace=wrap;html=1;" vertex="1" parent="1">
          <mxGeometry x="164" y="330" width="30" height="30" as="geometry" />
        </mxCell>
        <mxCell id="R-XqrJNLImSLN6h6NLTU-17" value="2" style="rounded=0;whiteSpace=wrap;html=1;" vertex="1" parent="1">
          <mxGeometry x="284" y="340" width="30" height="30" as="geometry" />
        </mxCell>
        <mxCell id="R-XqrJNLImSLN6h6NLTU-18" value="3" style="rounded=0;whiteSpace=wrap;html=1;" vertex="1" parent="1">
          <mxGeometry x="398" y="330" width="30" height="30" as="geometry" />
        </mxCell>
        <mxCell id="R-XqrJNLImSLN6h6NLTU-19" value="5" style="rounded=0;whiteSpace=wrap;html=1;" vertex="1" parent="1">
          <mxGeometry x="634" y="330" width="30" height="30" as="geometry" />
        </mxCell>
        <mxCell id="R-XqrJNLImSLN6h6NLTU-20" value="6" style="rounded=0;whiteSpace=wrap;html=1;" vertex="1" parent="1">
          <mxGeometry x="164" y="530" width="30" height="30" as="geometry" />
        </mxCell>
        <mxCell id="R-XqrJNLImSLN6h6NLTU-21" value="WrittenBy" style="text;html=1;align=center;verticalAlign=middle;resizable=0;points=[];autosize=1;strokeColor=none;fillColor=none;" vertex="1" parent="1">
          <mxGeometry x="349" y="170" width="80" height="30" as="geometry" />
        </mxCell>
        <mxCell id="R-XqrJNLImSLN6h6NLTU-25" style="edgeStyle=orthogonalEdgeStyle;rounded=0;orthogonalLoop=1;jettySize=auto;html=1;exitX=0.5;exitY=1;exitDx=0;exitDy=0;entryX=0.5;entryY=0;entryDx=0;entryDy=0;" edge="1" parent="1" source="y_QBRI53AlYQunm4WOpN-2" target="R-XqrJNLImSLN6h6NLTU-11">
          <mxGeometry relative="1" as="geometry" />
        </mxCell>
      </root>
    </mxGraphModel>
  </diagram>
  <diagram id="Q6ZMlCKYCsAuhhRzavhR" name="Страница — 5">
    <mxGraphModel grid="1" page="1" gridSize="10" guides="1" tooltips="1" connect="1" arrows="1" fold="1" pageScale="1" pageWidth="827" pageHeight="1169" math="0" shadow="0">
      <root>
        <mxCell id="0" />
        <mxCell id="1" parent="0" />
        <mxCell id="VgsyZ7mO0kZqcKRTa3n_-1" value="&lt;div&gt;&lt;br&gt;&lt;/div&gt;Уильям Шекспир" style="ellipse;whiteSpace=wrap;html=1;aspect=fixed;" vertex="1" parent="1">
          <mxGeometry x="700" y="440" width="80" height="80" as="geometry" />
        </mxCell>
        <mxCell id="VgsyZ7mO0kZqcKRTa3n_-2" value="Джейн Остин" style="ellipse;whiteSpace=wrap;html=1;aspect=fixed;" vertex="1" parent="1">
          <mxGeometry x="414" y="230" width="80" height="80" as="geometry" />
        </mxCell>
        <mxCell id="VgsyZ7mO0kZqcKRTa3n_-3" value="&lt;div&gt;&lt;br&gt;&lt;/div&gt;&lt;div&gt;&lt;br&gt;&lt;/div&gt;Габриэль Гарсиа Маркес" style="ellipse;whiteSpace=wrap;html=1;aspect=fixed;" vertex="1" parent="1">
          <mxGeometry x="610" y="140" width="80" height="80" as="geometry" />
        </mxCell>
        <mxCell id="VgsyZ7mO0kZqcKRTa3n_-4" value="&lt;div&gt;&lt;br&gt;&lt;/div&gt;Александр Пушкин" style="ellipse;whiteSpace=wrap;html=1;aspect=fixed;" vertex="1" parent="1">
          <mxGeometry x="220" y="340" width="80" height="80" as="geometry" />
        </mxCell>
        <mxCell id="VgsyZ7mO0kZqcKRTa3n_-5" value="&lt;div&gt;&lt;br&gt;&lt;/div&gt;Михаил Булгаков" style="ellipse;whiteSpace=wrap;html=1;aspect=fixed;" vertex="1" parent="1">
          <mxGeometry x="680" y="330" width="80" height="80" as="geometry" />
        </mxCell>
        <mxCell id="VgsyZ7mO0kZqcKRTa3n_-6" value="&lt;div&gt;&lt;br&gt;&lt;/div&gt;Эрнест Хемингуэй" style="ellipse;whiteSpace=wrap;html=1;aspect=fixed;" vertex="1" parent="1">
          <mxGeometry x="429" y="385" width="80" height="80" as="geometry" />
        </mxCell>
        <mxCell id="VgsyZ7mO0kZqcKRTa3n_-7" value="Толкин" style="ellipse;whiteSpace=wrap;html=1;aspect=fixed;" vertex="1" parent="1">
          <mxGeometry x="555" y="360" width="80" height="80" as="geometry" />
        </mxCell>
        <mxCell id="VgsyZ7mO0kZqcKRTa3n_-8" value="Лев Толстой" style="ellipse;whiteSpace=wrap;html=1;aspect=fixed;" vertex="1" parent="1">
          <mxGeometry x="140" y="140" width="80" height="80" as="geometry" />
        </mxCell>
        <mxCell id="VgsyZ7mO0kZqcKRTa3n_-9" value="&lt;div&gt;&lt;font style=&quot;font-size: 9px;&quot;&gt;&lt;br&gt;&lt;/font&gt;&lt;/div&gt;&lt;font style=&quot;font-size: 9px;&quot;&gt;Фёдор Достоевский&lt;/font&gt;" style="ellipse;whiteSpace=wrap;html=1;aspect=fixed;" vertex="1" parent="1">
          <mxGeometry x="220" y="230" width="80" height="80" as="geometry" />
        </mxCell>
        <mxCell id="VgsyZ7mO0kZqcKRTa3n_-10" value="&lt;div&gt;&lt;br&gt;&lt;/div&gt;Джордж Оруэлл" style="ellipse;whiteSpace=wrap;html=1;aspect=fixed;" vertex="1" parent="1">
          <mxGeometry x="374" y="140" width="80" height="80" as="geometry" />
        </mxCell>
        <mxCell id="VgsyZ7mO0kZqcKRTa3n_-11" value="4" style="rounded=0;whiteSpace=wrap;html=1;" vertex="1" parent="1">
          <mxGeometry x="439" y="230" width="30" height="30" as="geometry" />
        </mxCell>
        <mxCell id="VgsyZ7mO0kZqcKRTa3n_-12" value="9" style="rounded=0;whiteSpace=wrap;html=1;" vertex="1" parent="1">
          <mxGeometry x="725" y="440" width="30" height="30" as="geometry" />
        </mxCell>
        <mxCell id="VgsyZ7mO0kZqcKRTa3n_-13" value="10" style="rounded=0;whiteSpace=wrap;html=1;" vertex="1" parent="1">
          <mxGeometry x="580" y="360" width="30" height="30" as="geometry" />
        </mxCell>
        <mxCell id="VgsyZ7mO0kZqcKRTa3n_-14" value="8" style="rounded=0;whiteSpace=wrap;html=1;" vertex="1" parent="1">
          <mxGeometry x="454" y="385" width="30" height="30" as="geometry" />
        </mxCell>
        <mxCell id="VgsyZ7mO0kZqcKRTa3n_-15" value="7" style="rounded=0;whiteSpace=wrap;html=1;" vertex="1" parent="1">
          <mxGeometry x="705" y="330" width="30" height="30" as="geometry" />
        </mxCell>
        <mxCell id="VgsyZ7mO0kZqcKRTa3n_-16" value="1" style="rounded=0;whiteSpace=wrap;html=1;" vertex="1" parent="1">
          <mxGeometry x="165" y="140" width="30" height="30" as="geometry" />
        </mxCell>
        <mxCell id="VgsyZ7mO0kZqcKRTa3n_-17" value="2" style="rounded=0;whiteSpace=wrap;html=1;" vertex="1" parent="1">
          <mxGeometry x="245" y="230" width="30" height="30" as="geometry" />
        </mxCell>
        <mxCell id="VgsyZ7mO0kZqcKRTa3n_-18" value="3" style="rounded=0;whiteSpace=wrap;html=1;" vertex="1" parent="1">
          <mxGeometry x="399" y="140" width="30" height="30" as="geometry" />
        </mxCell>
        <mxCell id="VgsyZ7mO0kZqcKRTa3n_-19" value="5" style="rounded=0;whiteSpace=wrap;html=1;" vertex="1" parent="1">
          <mxGeometry x="635" y="140" width="30" height="30" as="geometry" />
        </mxCell>
        <mxCell id="VgsyZ7mO0kZqcKRTa3n_-20" value="6" style="rounded=0;whiteSpace=wrap;html=1;" vertex="1" parent="1">
          <mxGeometry x="245" y="340" width="30" height="30" as="geometry" />
        </mxCell>
        <mxCell id="VgsyZ7mO0kZqcKRTa3n_-21" value="" style="endArrow=classic;html=1;rounded=0;exitX=0.5;exitY=1;exitDx=0;exitDy=0;entryX=0.165;entryY=0.093;entryDx=0;entryDy=0;entryPerimeter=0;" edge="1" parent="1" source="VgsyZ7mO0kZqcKRTa3n_-8" target="VgsyZ7mO0kZqcKRTa3n_-9">
          <mxGeometry width="50" height="50" relative="1" as="geometry">
            <mxPoint x="300" y="270" as="sourcePoint" />
            <mxPoint x="350" y="220" as="targetPoint" />
          </mxGeometry>
        </mxCell>
        <mxCell id="VgsyZ7mO0kZqcKRTa3n_-22" value="" style="endArrow=classic;html=1;rounded=0;exitX=1;exitY=0.5;exitDx=0;exitDy=0;entryX=0;entryY=0.5;entryDx=0;entryDy=0;" edge="1" parent="1" source="VgsyZ7mO0kZqcKRTa3n_-8" target="VgsyZ7mO0kZqcKRTa3n_-10">
          <mxGeometry width="50" height="50" relative="1" as="geometry">
            <mxPoint x="220" y="190" as="sourcePoint" />
            <mxPoint x="370" y="180" as="targetPoint" />
          </mxGeometry>
        </mxCell>
        <mxCell id="VgsyZ7mO0kZqcKRTa3n_-23" value="" style="endArrow=classic;html=1;rounded=0;exitX=0.996;exitY=0.563;exitDx=0;exitDy=0;exitPerimeter=0;entryX=0.011;entryY=0.453;entryDx=0;entryDy=0;entryPerimeter=0;" edge="1" parent="1" source="VgsyZ7mO0kZqcKRTa3n_-9" target="VgsyZ7mO0kZqcKRTa3n_-2">
          <mxGeometry width="50" height="50" relative="1" as="geometry">
            <mxPoint x="370" y="290" as="sourcePoint" />
            <mxPoint x="409" y="267" as="targetPoint" />
          </mxGeometry>
        </mxCell>
        <mxCell id="VgsyZ7mO0kZqcKRTa3n_-24" value="" style="endArrow=classic;html=1;rounded=0;entryX=-0.057;entryY=0.465;entryDx=0;entryDy=0;entryPerimeter=0;exitX=1;exitY=0.5;exitDx=0;exitDy=0;" edge="1" parent="1" source="VgsyZ7mO0kZqcKRTa3n_-10">
          <mxGeometry width="50" height="50" relative="1" as="geometry">
            <mxPoint x="460" y="180" as="sourcePoint" />
            <mxPoint x="612.5" y="170" as="targetPoint" />
          </mxGeometry>
        </mxCell>
        <mxCell id="VgsyZ7mO0kZqcKRTa3n_-25" value="" style="endArrow=classic;html=1;rounded=0;exitX=0;exitY=1;exitDx=0;exitDy=0;entryX=1.003;entryY=0.297;entryDx=0;entryDy=0;entryPerimeter=0;" edge="1" parent="1" source="VgsyZ7mO0kZqcKRTa3n_-2" target="VgsyZ7mO0kZqcKRTa3n_-4">
          <mxGeometry width="50" height="50" relative="1" as="geometry">
            <mxPoint x="350" y="295" as="sourcePoint" />
            <mxPoint x="515" y="287" as="targetPoint" />
          </mxGeometry>
        </mxCell>
        <mxCell id="VgsyZ7mO0kZqcKRTa3n_-27" value="" style="curved=1;endArrow=classic;html=1;rounded=0;entryX=0;entryY=0;entryDx=0;entryDy=0;exitX=0.5;exitY=1;exitDx=0;exitDy=0;" edge="1" parent="1" source="VgsyZ7mO0kZqcKRTa3n_-3" target="VgsyZ7mO0kZqcKRTa3n_-15">
          <mxGeometry width="50" height="50" relative="1" as="geometry">
            <mxPoint x="640" y="290" as="sourcePoint" />
            <mxPoint x="390" y="430" as="targetPoint" />
            <Array as="points">
              <mxPoint x="670" y="310" />
              <mxPoint x="710" y="290" />
            </Array>
          </mxGeometry>
        </mxCell>
        <mxCell id="VgsyZ7mO0kZqcKRTa3n_-28" value="" style="endArrow=classic;html=1;rounded=0;exitX=1;exitY=1;exitDx=0;exitDy=0;entryX=0.006;entryY=0.438;entryDx=0;entryDy=0;entryPerimeter=0;" edge="1" parent="1" source="VgsyZ7mO0kZqcKRTa3n_-4" target="VgsyZ7mO0kZqcKRTa3n_-6">
          <mxGeometry width="50" height="50" relative="1" as="geometry">
            <mxPoint x="420" y="430" as="sourcePoint" />
            <mxPoint x="450" y="380" as="targetPoint" />
          </mxGeometry>
        </mxCell>
        <mxCell id="VgsyZ7mO0kZqcKRTa3n_-29" value="" style="curved=1;endArrow=classic;html=1;rounded=0;entryX=0.06;entryY=0.249;entryDx=0;entryDy=0;entryPerimeter=0;exitX=0.5;exitY=1;exitDx=0;exitDy=0;" edge="1" parent="1" source="VgsyZ7mO0kZqcKRTa3n_-5" target="VgsyZ7mO0kZqcKRTa3n_-1">
          <mxGeometry width="50" height="50" relative="1" as="geometry">
            <mxPoint x="680" y="370" as="sourcePoint" />
            <mxPoint x="390" y="380" as="targetPoint" />
            <Array as="points">
              <mxPoint x="670" y="460" />
            </Array>
          </mxGeometry>
        </mxCell>
        <mxCell id="VgsyZ7mO0kZqcKRTa3n_-32" value="" style="endArrow=classic;html=1;rounded=0;exitX=1;exitY=0.5;exitDx=0;exitDy=0;entryX=0;entryY=0.5;entryDx=0;entryDy=0;" edge="1" parent="1" source="VgsyZ7mO0kZqcKRTa3n_-6">
          <mxGeometry width="50" height="50" relative="1" as="geometry">
            <mxPoint x="273" y="463" as="sourcePoint" />
            <mxPoint x="564.9999999999998" y="415" as="targetPoint" />
          </mxGeometry>
        </mxCell>
        <mxCell id="VgsyZ7mO0kZqcKRTa3n_-33" value="Knows" style="text;whiteSpace=wrap;" vertex="1" parent="1">
          <mxGeometry x="399" y="80" width="70" height="40" as="geometry" />
        </mxCell>
      </root>
    </mxGraphModel>
  </diagram>
  <diagram id="8vFhrLtm2Rs5cj_jWW-e" name="Страница — 6">
    <mxGraphModel grid="1" page="1" gridSize="10" guides="1" tooltips="1" connect="1" arrows="1" fold="1" pageScale="1" pageWidth="827" pageHeight="1169" math="0" shadow="0">
      <root>
        <mxCell id="0" />
        <mxCell id="1" parent="0" />
        <mxCell id="jI90XR1vHiwEmg8qhYsE-1" value="Гамлет&lt;div&gt;&lt;/div&gt;" style="ellipse;whiteSpace=wrap;html=1;aspect=fixed;fillColor=#fff2cc;strokeColor=#d6b656;" vertex="1" parent="1">
          <mxGeometry x="610" y="385" width="80" height="80" as="geometry" />
        </mxCell>
        <mxCell id="G960FDkU0chFDtZxmE2C-4" style="edgeStyle=orthogonalEdgeStyle;rounded=0;orthogonalLoop=1;jettySize=auto;html=1;exitX=1;exitY=0.5;exitDx=0;exitDy=0;entryX=0;entryY=0.5;entryDx=0;entryDy=0;" edge="1" parent="1" source="jI90XR1vHiwEmg8qhYsE-2" target="E8UgxipVg8mdy7IQeRzA-8">
          <mxGeometry relative="1" as="geometry">
            <Array as="points">
              <mxPoint x="130" y="275" />
              <mxPoint x="130" y="270" />
            </Array>
          </mxGeometry>
        </mxCell>
        <mxCell id="jI90XR1vHiwEmg8qhYsE-2" value="&lt;span style=&quot;font-size: 9px;&quot;&gt;Гордость и предубеждение&lt;/span&gt;" style="ellipse;whiteSpace=wrap;html=1;aspect=fixed;fillColor=#fff2cc;strokeColor=#d6b656;" vertex="1" parent="1">
          <mxGeometry x="30" y="235" width="80" height="80" as="geometry" />
        </mxCell>
        <mxCell id="jI90XR1vHiwEmg8qhYsE-3" value="&lt;div&gt;&lt;font style=&quot;font-size: 9px;&quot;&gt;&lt;br&gt;&lt;/font&gt;&lt;/div&gt;&lt;font style=&quot;font-size: 9px;&quot;&gt;Сто лет одиночества&lt;/font&gt;&lt;div&gt;&lt;/div&gt;" style="ellipse;whiteSpace=wrap;html=1;aspect=fixed;fillColor=#fff2cc;strokeColor=#d6b656;" vertex="1" parent="1">
          <mxGeometry x="250" y="305" width="80" height="80" as="geometry" />
        </mxCell>
        <mxCell id="G960FDkU0chFDtZxmE2C-6" style="edgeStyle=orthogonalEdgeStyle;rounded=0;orthogonalLoop=1;jettySize=auto;html=1;exitX=1;exitY=0.5;exitDx=0;exitDy=0;entryX=0;entryY=0;entryDx=0;entryDy=0;" edge="1" parent="1" source="jI90XR1vHiwEmg8qhYsE-4" target="E8UgxipVg8mdy7IQeRzA-3">
          <mxGeometry relative="1" as="geometry" />
        </mxCell>
        <mxCell id="jI90XR1vHiwEmg8qhYsE-4" value="&lt;div&gt;&lt;br&gt;&lt;/div&gt;Евгений Онегин&lt;div&gt;&lt;/div&gt;" style="ellipse;whiteSpace=wrap;html=1;aspect=fixed;fillColor=#fff2cc;strokeColor=#d6b656;" vertex="1" parent="1">
          <mxGeometry x="620" y="190" width="80" height="80" as="geometry" />
        </mxCell>
        <mxCell id="G960FDkU0chFDtZxmE2C-7" style="edgeStyle=orthogonalEdgeStyle;rounded=0;orthogonalLoop=1;jettySize=auto;html=1;exitX=0;exitY=0.5;exitDx=0;exitDy=0;entryX=1;entryY=0.5;entryDx=0;entryDy=0;" edge="1" parent="1" source="jI90XR1vHiwEmg8qhYsE-5" target="E8UgxipVg8mdy7IQeRzA-4">
          <mxGeometry relative="1" as="geometry" />
        </mxCell>
        <mxCell id="jI90XR1vHiwEmg8qhYsE-5" value="&lt;div&gt;&lt;br&gt;&lt;/div&gt;Мастер и Маргарита&lt;div&gt;&lt;/div&gt;" style="ellipse;whiteSpace=wrap;html=1;aspect=fixed;fillColor=#fff2cc;strokeColor=#d6b656;" vertex="1" parent="1">
          <mxGeometry x="260" y="440" width="80" height="80" as="geometry" />
        </mxCell>
        <mxCell id="jI90XR1vHiwEmg8qhYsE-6" value="&lt;div&gt;&lt;br&gt;&lt;/div&gt;Старик и море&lt;div&gt;&lt;/div&gt;" style="ellipse;whiteSpace=wrap;html=1;aspect=fixed;fillColor=#fff2cc;strokeColor=#d6b656;" vertex="1" parent="1">
          <mxGeometry x="374" y="340" width="80" height="80" as="geometry" />
        </mxCell>
        <mxCell id="jI90XR1vHiwEmg8qhYsE-7" value="&lt;div&gt;&lt;br&gt;&lt;/div&gt;Властелин колец" style="ellipse;whiteSpace=wrap;html=1;aspect=fixed;fillColor=#fff2cc;strokeColor=#d6b656;" vertex="1" parent="1">
          <mxGeometry x="620" y="510" width="80" height="80" as="geometry" />
        </mxCell>
        <mxCell id="jI90XR1vHiwEmg8qhYsE-8" value="Война и мир" style="ellipse;whiteSpace=wrap;html=1;aspect=fixed;fillColor=#fff2cc;strokeColor=#d6b656;" vertex="1" parent="1">
          <mxGeometry x="140" y="110" width="80" height="80" as="geometry" />
        </mxCell>
        <mxCell id="jI90XR1vHiwEmg8qhYsE-9" value="&lt;div&gt;&lt;font size=&quot;1&quot;&gt;&lt;br&gt;&lt;/font&gt;&lt;/div&gt;&lt;font size=&quot;1&quot;&gt;Преступление и наказание&lt;/font&gt;" style="ellipse;whiteSpace=wrap;html=1;aspect=fixed;fillColor=#fff2cc;strokeColor=#d6b656;" vertex="1" parent="1">
          <mxGeometry x="494" y="110" width="80" height="80" as="geometry" />
        </mxCell>
        <mxCell id="jI90XR1vHiwEmg8qhYsE-10" value="1984&lt;div&gt;&lt;/div&gt;" style="ellipse;whiteSpace=wrap;html=1;aspect=fixed;fillColor=#fff2cc;strokeColor=#d6b656;" vertex="1" parent="1">
          <mxGeometry x="374" y="140" width="80" height="80" as="geometry" />
        </mxCell>
        <mxCell id="jI90XR1vHiwEmg8qhYsE-11" value="4" style="rounded=0;whiteSpace=wrap;html=1;" vertex="1" parent="1">
          <mxGeometry x="55" y="235" width="30" height="30" as="geometry" />
        </mxCell>
        <mxCell id="jI90XR1vHiwEmg8qhYsE-12" value="9" style="rounded=0;whiteSpace=wrap;html=1;" vertex="1" parent="1">
          <mxGeometry x="635" y="385" width="30" height="30" as="geometry" />
        </mxCell>
        <mxCell id="jI90XR1vHiwEmg8qhYsE-13" value="10" style="rounded=0;whiteSpace=wrap;html=1;" vertex="1" parent="1">
          <mxGeometry x="645" y="510" width="30" height="30" as="geometry" />
        </mxCell>
        <mxCell id="jI90XR1vHiwEmg8qhYsE-14" value="8" style="rounded=0;whiteSpace=wrap;html=1;" vertex="1" parent="1">
          <mxGeometry x="399" y="340" width="30" height="30" as="geometry" />
        </mxCell>
        <mxCell id="jI90XR1vHiwEmg8qhYsE-15" value="7" style="rounded=0;whiteSpace=wrap;html=1;" vertex="1" parent="1">
          <mxGeometry x="285" y="440" width="30" height="30" as="geometry" />
        </mxCell>
        <mxCell id="jI90XR1vHiwEmg8qhYsE-16" value="1" style="rounded=0;whiteSpace=wrap;html=1;" vertex="1" parent="1">
          <mxGeometry x="165" y="110" width="30" height="30" as="geometry" />
        </mxCell>
        <mxCell id="jI90XR1vHiwEmg8qhYsE-17" value="2" style="rounded=0;whiteSpace=wrap;html=1;" vertex="1" parent="1">
          <mxGeometry x="519" y="110" width="30" height="30" as="geometry" />
        </mxCell>
        <mxCell id="jI90XR1vHiwEmg8qhYsE-18" value="3" style="rounded=0;whiteSpace=wrap;html=1;" vertex="1" parent="1">
          <mxGeometry x="399" y="140" width="30" height="30" as="geometry" />
        </mxCell>
        <mxCell id="jI90XR1vHiwEmg8qhYsE-19" value="5" style="rounded=0;whiteSpace=wrap;html=1;" vertex="1" parent="1">
          <mxGeometry x="275" y="305" width="30" height="30" as="geometry" />
        </mxCell>
        <mxCell id="jI90XR1vHiwEmg8qhYsE-20" value="6" style="rounded=0;whiteSpace=wrap;html=1;" vertex="1" parent="1">
          <mxGeometry x="645" y="190" width="30" height="30" as="geometry" />
        </mxCell>
        <mxCell id="E8UgxipVg8mdy7IQeRzA-1" value="Фэнтези&lt;div&gt;&lt;/div&gt;" style="ellipse;whiteSpace=wrap;html=1;aspect=fixed;fillColor=#d5e8d4;strokeColor=#82b366;" vertex="1" parent="1">
          <mxGeometry x="490" y="530" width="80" height="80" as="geometry" />
        </mxCell>
        <mxCell id="E8UgxipVg8mdy7IQeRzA-2" value="&lt;font size=&quot;1&quot;&gt;Классика&lt;/font&gt;" style="ellipse;whiteSpace=wrap;html=1;aspect=fixed;fillColor=#d5e8d4;strokeColor=#82b366;" vertex="1" parent="1">
          <mxGeometry x="315" y="550" width="80" height="80" as="geometry" />
        </mxCell>
        <mxCell id="E8UgxipVg8mdy7IQeRzA-3" value="&lt;div&gt;&lt;font size=&quot;1&quot;&gt;Поэма&lt;/font&gt;&lt;br&gt;&lt;/div&gt;&lt;div&gt;&lt;/div&gt;" style="ellipse;whiteSpace=wrap;html=1;aspect=fixed;fillColor=#d5e8d4;strokeColor=#82b366;" vertex="1" parent="1">
          <mxGeometry x="700" y="295" width="80" height="80" as="geometry" />
        </mxCell>
        <mxCell id="E8UgxipVg8mdy7IQeRzA-4" value="Мистика&lt;div&gt;&lt;/div&gt;&lt;div&gt;&lt;/div&gt;" style="ellipse;whiteSpace=wrap;html=1;aspect=fixed;fillColor=#d5e8d4;strokeColor=#82b366;" vertex="1" parent="1">
          <mxGeometry x="140" y="430" width="80" height="80" as="geometry" />
        </mxCell>
        <mxCell id="E8UgxipVg8mdy7IQeRzA-5" value="&lt;font style=&quot;font-size: 10px;&quot;&gt;Приключения&lt;/font&gt;&lt;div&gt;&lt;/div&gt;&lt;div&gt;&lt;/div&gt;" style="ellipse;whiteSpace=wrap;html=1;aspect=fixed;fillColor=#d5e8d4;strokeColor=#82b366;" vertex="1" parent="1">
          <mxGeometry x="414" y="250" width="80" height="80" as="geometry" />
        </mxCell>
        <mxCell id="E8UgxipVg8mdy7IQeRzA-6" value="Трагедия&lt;br&gt;&lt;div&gt;&lt;/div&gt;&lt;div&gt;&lt;/div&gt;" style="ellipse;whiteSpace=wrap;html=1;aspect=fixed;fillColor=#d5e8d4;strokeColor=#82b366;" vertex="1" parent="1">
          <mxGeometry x="494" y="375" width="80" height="80" as="geometry" />
        </mxCell>
        <mxCell id="E8UgxipVg8mdy7IQeRzA-7" value="Драма&lt;div&gt;&lt;/div&gt;" style="ellipse;whiteSpace=wrap;html=1;aspect=fixed;fillColor=#d5e8d4;strokeColor=#82b366;" vertex="1" parent="1">
          <mxGeometry x="190" y="550" width="80" height="80" as="geometry" />
        </mxCell>
        <mxCell id="E8UgxipVg8mdy7IQeRzA-8" value="Роман" style="ellipse;whiteSpace=wrap;html=1;aspect=fixed;fillColor=#d5e8d4;strokeColor=#82b366;" vertex="1" parent="1">
          <mxGeometry x="140" y="230" width="80" height="80" as="geometry" />
        </mxCell>
        <mxCell id="E8UgxipVg8mdy7IQeRzA-9" value="&lt;div&gt;Фантастика&lt;/div&gt;" style="ellipse;whiteSpace=wrap;html=1;aspect=fixed;fillColor=#d5e8d4;strokeColor=#82b366;" vertex="1" parent="1">
          <mxGeometry x="260" y="150" width="80" height="80" as="geometry" />
        </mxCell>
        <mxCell id="E8UgxipVg8mdy7IQeRzA-10" value="Детектив&lt;div&gt;&lt;/div&gt;" style="ellipse;whiteSpace=wrap;html=1;aspect=fixed;fillColor=#d5e8d4;strokeColor=#82b366;" vertex="1" parent="1">
          <mxGeometry x="608" y="100" width="80" height="80" as="geometry" />
        </mxCell>
        <mxCell id="E8UgxipVg8mdy7IQeRzA-11" value="4" style="rounded=0;whiteSpace=wrap;html=1;fillColor=#d5e8d4;strokeColor=#82b366;" vertex="1" parent="1">
          <mxGeometry x="340" y="550" width="30" height="30" as="geometry" />
        </mxCell>
        <mxCell id="E8UgxipVg8mdy7IQeRzA-12" value="9" style="rounded=0;whiteSpace=wrap;html=1;fillColor=#d5e8d4;strokeColor=#82b366;" vertex="1" parent="1">
          <mxGeometry x="515" y="530" width="30" height="30" as="geometry" />
        </mxCell>
        <mxCell id="E8UgxipVg8mdy7IQeRzA-13" value="10" style="rounded=0;whiteSpace=wrap;html=1;fillColor=#d5e8d4;strokeColor=#82b366;" vertex="1" parent="1">
          <mxGeometry x="215" y="550" width="30" height="30" as="geometry" />
        </mxCell>
        <mxCell id="E8UgxipVg8mdy7IQeRzA-14" value="8" style="rounded=0;whiteSpace=wrap;html=1;fillColor=#d5e8d4;strokeColor=#82b366;" vertex="1" parent="1">
          <mxGeometry x="519" y="375" width="30" height="30" as="geometry" />
        </mxCell>
        <mxCell id="E8UgxipVg8mdy7IQeRzA-15" value="7" style="rounded=0;whiteSpace=wrap;html=1;fillColor=#d5e8d4;strokeColor=#82b366;" vertex="1" parent="1">
          <mxGeometry x="439" y="250" width="30" height="30" as="geometry" />
        </mxCell>
        <mxCell id="E8UgxipVg8mdy7IQeRzA-16" value="1" style="rounded=0;whiteSpace=wrap;html=1;fillColor=#d5e8d4;strokeColor=#82b366;" vertex="1" parent="1">
          <mxGeometry x="165" y="230" width="30" height="30" as="geometry" />
        </mxCell>
        <mxCell id="E8UgxipVg8mdy7IQeRzA-17" value="2" style="rounded=0;whiteSpace=wrap;html=1;fillColor=#d5e8d4;strokeColor=#82b366;" vertex="1" parent="1">
          <mxGeometry x="285" y="150" width="30" height="30" as="geometry" />
        </mxCell>
        <mxCell id="E8UgxipVg8mdy7IQeRzA-18" value="3" style="rounded=0;whiteSpace=wrap;html=1;fillColor=#d5e8d4;strokeColor=#82b366;" vertex="1" parent="1">
          <mxGeometry x="633" y="100" width="30" height="30" as="geometry" />
        </mxCell>
        <mxCell id="E8UgxipVg8mdy7IQeRzA-19" value="5" style="rounded=0;whiteSpace=wrap;html=1;fillColor=#d5e8d4;strokeColor=#82b366;" vertex="1" parent="1">
          <mxGeometry x="725" y="295" width="30" height="30" as="geometry" />
        </mxCell>
        <mxCell id="E8UgxipVg8mdy7IQeRzA-20" value="6" style="rounded=0;whiteSpace=wrap;html=1;fillColor=#d5e8d4;strokeColor=#82b366;" vertex="1" parent="1">
          <mxGeometry x="165" y="430" width="30" height="30" as="geometry" />
        </mxCell>
        <mxCell id="G960FDkU0chFDtZxmE2C-1" value="" style="endArrow=classic;html=1;rounded=0;exitX=0.5;exitY=1;exitDx=0;exitDy=0;entryX=0.5;entryY=0;entryDx=0;entryDy=0;" edge="1" parent="1" source="jI90XR1vHiwEmg8qhYsE-8" target="E8UgxipVg8mdy7IQeRzA-16">
          <mxGeometry width="50" height="50" relative="1" as="geometry">
            <mxPoint x="310" y="290" as="sourcePoint" />
            <mxPoint x="360" y="240" as="targetPoint" />
          </mxGeometry>
        </mxCell>
        <mxCell id="G960FDkU0chFDtZxmE2C-2" style="edgeStyle=orthogonalEdgeStyle;rounded=0;orthogonalLoop=1;jettySize=auto;html=1;exitX=1;exitY=0.5;exitDx=0;exitDy=0;entryX=0.049;entryY=0.635;entryDx=0;entryDy=0;entryPerimeter=0;" edge="1" parent="1" target="E8UgxipVg8mdy7IQeRzA-10">
          <mxGeometry relative="1" as="geometry">
            <mxPoint x="574" y="150" as="sourcePoint" />
          </mxGeometry>
        </mxCell>
        <mxCell id="G960FDkU0chFDtZxmE2C-3" value="" style="endArrow=classic;html=1;rounded=0;entryX=1;entryY=0.5;entryDx=0;entryDy=0;exitX=0;exitY=0.5;exitDx=0;exitDy=0;" edge="1" parent="1" source="jI90XR1vHiwEmg8qhYsE-10" target="E8UgxipVg8mdy7IQeRzA-9">
          <mxGeometry width="50" height="50" relative="1" as="geometry">
            <mxPoint x="386" y="208" as="sourcePoint" />
            <mxPoint x="360" y="240" as="targetPoint" />
          </mxGeometry>
        </mxCell>
        <mxCell id="G960FDkU0chFDtZxmE2C-5" value="" style="endArrow=classic;html=1;rounded=0;exitX=0.049;exitY=0.227;exitDx=0;exitDy=0;exitPerimeter=0;entryX=0.949;entryY=0.715;entryDx=0;entryDy=0;entryPerimeter=0;" edge="1" parent="1" source="jI90XR1vHiwEmg8qhYsE-3" target="E8UgxipVg8mdy7IQeRzA-8">
          <mxGeometry width="50" height="50" relative="1" as="geometry">
            <mxPoint x="310" y="290" as="sourcePoint" />
            <mxPoint x="360" y="240" as="targetPoint" />
          </mxGeometry>
        </mxCell>
        <mxCell id="G960FDkU0chFDtZxmE2C-8" style="edgeStyle=orthogonalEdgeStyle;rounded=0;orthogonalLoop=1;jettySize=auto;html=1;exitX=1;exitY=0;exitDx=0;exitDy=0;entryX=0.419;entryY=1.006;entryDx=0;entryDy=0;entryPerimeter=0;" edge="1" parent="1" source="jI90XR1vHiwEmg8qhYsE-6" target="E8UgxipVg8mdy7IQeRzA-5">
          <mxGeometry relative="1" as="geometry" />
        </mxCell>
        <mxCell id="G960FDkU0chFDtZxmE2C-9" style="edgeStyle=orthogonalEdgeStyle;rounded=0;orthogonalLoop=1;jettySize=auto;html=1;exitX=0;exitY=0.5;exitDx=0;exitDy=0;entryX=0.954;entryY=0.636;entryDx=0;entryDy=0;entryPerimeter=0;" edge="1" parent="1" source="jI90XR1vHiwEmg8qhYsE-1" target="E8UgxipVg8mdy7IQeRzA-6">
          <mxGeometry relative="1" as="geometry" />
        </mxCell>
        <mxCell id="G960FDkU0chFDtZxmE2C-10" style="edgeStyle=orthogonalEdgeStyle;rounded=0;orthogonalLoop=1;jettySize=auto;html=1;exitX=0;exitY=1;exitDx=0;exitDy=0;" edge="1" parent="1" source="jI90XR1vHiwEmg8qhYsE-7" target="E8UgxipVg8mdy7IQeRzA-1">
          <mxGeometry relative="1" as="geometry">
            <Array as="points">
              <mxPoint x="612" y="550" />
            </Array>
          </mxGeometry>
        </mxCell>
        <mxCell id="G960FDkU0chFDtZxmE2C-11" value="BelongsToGenre" style="text;whiteSpace=wrap;" vertex="1" parent="1">
          <mxGeometry x="349" y="80" width="120" height="40" as="geometry" />
        </mxCell>
      </root>
    </mxGraphModel>
  </diagram>
</mxfile>
